<svg width="242" height="79" viewBox="0 0 242 79" fill="none" xmlns="http://www.w3.org/2000/svg">
<line x1="26" y1="26.1" x2="121" y2="26.1" stroke="#4EC1BF" stroke-width="1.8"/>
<line x1="121" y1="26.1" x2="216" y2="26.1" stroke="#4EC1BF" stroke-width="1.8"/>
<circle cx="26" cy="25" r="24.1" fill="white" stroke="#4EC1BF" stroke-width="1.8"/>
<path d="M32.6668 20L23.5002 29.1667L19.3335 25" stroke="#4EC1BF" stroke-width="2" stroke-linecap="round" stroke-linejoin="round"/>
<circle cx="121" cy="25" r="24.1" fill="white" stroke="#4EC1BF" stroke-width="1.8"/>
<path d="M127.667 20L118.5 29.1667L114.333 25" stroke="#4EC1BF" stroke-width="2" stroke-linecap="round" stroke-linejoin="round"/>
<circle cx="216" cy="25" r="24.1" fill="white" stroke="#4EC1BF" stroke-width="1.8"/>
<circle cx="216" cy="25" r="18.1" fill="#4EC1BF" stroke="#4EC1BF" stroke-width="1.8"/>
<path d="M214.932 32.252C212.826 32.252 211.404 31.46 210.468 30.398L211.71 28.724C212.502 29.498 213.474 30.092 214.68 30.092C216.03 30.092 216.948 29.426 216.948 28.22C216.948 26.924 216.174 26.096 213.276 26.096V24.206C215.724 24.206 216.516 23.36 216.516 22.172C216.516 21.128 215.868 20.516 214.734 20.516C213.78 20.516 213.006 20.948 212.214 21.686L210.864 20.066C212.016 19.058 213.294 18.428 214.86 18.428C217.434 18.428 219.18 19.706 219.18 21.974C219.18 23.414 218.37 24.458 216.966 25.016V25.106C218.46 25.52 219.612 26.636 219.612 28.382C219.612 30.83 217.47 32.252 214.932 32.252Z" fill="white"/>
<path d="M191.572 64.766H197.438C197.438 68.434 195.87 71.682 191.74 73.768L190.942 72.662C194.036 71.08 195.702 68.854 195.996 65.942H191.572V64.766ZM202.66 68.42V69.624H200.742V76.064H199.3V63.422H200.742V68.42H202.66ZM212.809 63.436H214.251V70.226H212.809V63.436ZM205.991 70.814H207.419V72.214H212.823V70.814H214.251V75.924H205.991V70.814ZM207.419 73.334V74.762H212.823V73.334H207.419ZM207.433 64.01C209.365 64.01 210.779 65.214 210.779 66.95C210.779 68.686 209.365 69.89 207.433 69.89C205.501 69.89 204.073 68.686 204.073 66.95C204.073 65.214 205.501 64.01 207.433 64.01ZM207.433 65.2C206.285 65.2 205.487 65.9 205.487 66.95C205.487 68.014 206.285 68.7 207.433 68.7C208.567 68.7 209.379 68.014 209.379 66.95C209.379 65.9 208.567 65.2 207.433 65.2ZM218.716 66.502C218.716 67.384 219.458 67.944 220.508 67.944C221.572 67.944 222.286 67.384 222.286 66.502C222.286 65.634 221.572 65.074 220.508 65.074C219.458 65.074 218.716 65.634 218.716 66.502ZM224.428 69.764L224.526 70.814C221.922 71.304 218.982 71.346 216.868 71.346L216.686 70.17C217.596 70.17 218.674 70.17 219.808 70.128V68.98C218.352 68.756 217.372 67.804 217.372 66.502C217.372 65.004 218.674 63.982 220.508 63.982C222.342 63.982 223.63 65.004 223.63 66.502C223.63 67.79 222.678 68.742 221.25 68.98V70.072C222.328 70.002 223.42 69.918 224.428 69.764ZM219.878 72.284V74.664H227.046V75.826H218.436V72.284H219.878ZM226.612 67.58H228.348V68.77H226.612V73.11H225.17V63.45H226.612V67.58ZM234.087 71.22V73.404H236.677V71.22H234.087ZM238.105 73.404H241.045V74.594H229.593V73.404H232.659V71.22H230.979V67.16H238.259V65.48H230.951V64.318H239.687V68.308H232.393V70.058H239.967V71.22H238.105V73.404Z" fill="#21A7A4"/>
<path d="M2.52419 67.202C2.52419 68.308 3.35019 69.022 4.47019 69.022C5.60419 69.022 6.43019 68.308 6.43019 67.202C6.43019 66.096 5.60419 65.382 4.47019 65.382C3.35019 65.382 2.52419 66.096 2.52419 67.202ZM7.84419 67.202C7.84419 68.994 6.40219 70.24 4.47019 70.24C2.55219 70.24 1.11019 68.994 1.11019 67.202C1.11019 65.41 2.55219 64.164 4.47019 64.164C6.40219 64.164 7.84419 65.41 7.84419 67.202ZM2.51019 72.648V71.486H10.8262V76.092H9.38419V72.648H2.51019ZM12.5762 66.432H10.8262V67.958H12.5762V69.148H10.8262V70.926H9.38419V63.436H10.8262V65.242H12.5762V66.432ZM20.5131 68.854L19.0991 68.7C19.3511 67.342 19.3931 66.348 19.4071 65.564H14.4651V64.388H20.8211V65.116C20.8211 65.97 20.8211 67.216 20.5131 68.854ZM21.5631 69.484L21.6611 70.534C19.0291 70.996 16.0471 71.066 13.8491 71.066L13.6951 69.89C14.4511 69.89 15.3191 69.89 16.2151 69.862V67.272H17.6431V69.82C18.9591 69.764 20.3171 69.68 21.5631 69.484ZM17.0551 72.088V74.664H24.1951V75.84H15.5991V72.088H17.0551ZM23.7891 67.44H25.4691V68.63H23.7891V72.928H22.3331V63.436H23.7891V67.44ZM32.398 74.972C34.246 74.972 35.296 74.566 35.296 73.782C35.296 73.012 34.246 72.592 32.398 72.592C30.55 72.592 29.514 73.012 29.514 73.782C29.514 74.566 30.55 74.972 32.398 74.972ZM32.398 71.486C35.114 71.486 36.752 72.326 36.752 73.782C36.752 75.252 35.114 76.092 32.398 76.092C29.696 76.092 28.044 75.252 28.044 73.782C28.044 72.326 29.696 71.486 32.398 71.486ZM33.154 69.54H38.152V70.716H26.728V69.54H31.712V68.28H28.142V63.996H36.752V65.144H29.57V67.118H36.836V68.28H33.154V69.54ZM43.6669 64.318C45.6409 64.318 47.1109 65.564 47.1109 67.356C47.1109 69.148 45.6409 70.394 43.6669 70.394C41.6929 70.394 40.2369 69.148 40.2369 67.356C40.2369 65.564 41.6929 64.318 43.6669 64.318ZM43.6669 65.55C42.5049 65.55 41.6509 66.25 41.6509 67.356C41.6509 68.448 42.5049 69.162 43.6669 69.162C44.8429 69.162 45.6969 68.448 45.6969 67.356C45.6969 66.25 44.8429 65.55 43.6669 65.55ZM48.5389 63.422H49.9949V76.092H48.5389V63.422ZM39.8309 73.418L39.6489 72.228C41.9169 72.228 45.0669 72.214 47.7829 71.808L47.8809 72.858C45.0949 73.39 42.0709 73.418 39.8309 73.418Z" fill="#333333"/>
<path d="M102.746 66.614H104.986V63.436H106.428V70.968H104.986V67.79H102.746V66.614ZM103.474 69.428L102.76 70.562C101.36 70.072 100.352 69.078 99.8202 67.86C99.2602 69.246 98.1962 70.366 96.6982 70.898L95.9562 69.75C97.9162 69.05 99.0502 67.37 99.0502 65.634V65.452H96.3762V64.29H103.138V65.452H100.506V65.62C100.506 67.202 101.584 68.77 103.474 69.428ZM102.228 74.972C104.006 74.972 105.042 74.524 105.042 73.698C105.042 72.872 104.006 72.424 102.228 72.424C100.422 72.424 99.4002 72.872 99.4002 73.698C99.4002 74.524 100.422 74.972 102.228 74.972ZM102.228 71.304C104.86 71.304 106.484 72.2 106.484 73.698C106.484 75.21 104.86 76.092 102.228 76.092C99.5822 76.092 97.9582 75.21 97.9582 73.698C97.9582 72.2 99.5822 71.304 102.228 71.304ZM111.551 67.566V69.638H117.543V67.566H111.551ZM115.261 73.348H120.287V74.538H108.835V73.348H113.819V70.8H110.123V64.276H111.551V66.404H117.543V64.276H118.971V70.8H115.261V73.348ZM130.688 63.436H132.13V70.226H130.688V63.436ZM123.87 70.814H125.298V72.214H130.702V70.814H132.13V75.924H123.87V70.814ZM125.298 73.334V74.762H130.702V73.334H125.298ZM125.312 64.01C127.244 64.01 128.658 65.214 128.658 66.95C128.658 68.686 127.244 69.89 125.312 69.89C123.38 69.89 121.952 68.686 121.952 66.95C121.952 65.214 123.38 64.01 125.312 64.01ZM125.312 65.2C124.164 65.2 123.366 65.9 123.366 66.95C123.366 68.014 124.164 68.7 125.312 68.7C126.446 68.7 127.258 68.014 127.258 66.95C127.258 65.9 126.446 65.2 125.312 65.2ZM141.159 69.288L141.313 70.45C139.787 70.716 138.499 70.758 136.021 70.758H135.097V66.838H139.129V65.326H135.069V64.164H140.557V67.944H136.511V69.582C138.625 69.582 139.787 69.526 141.159 69.288ZM136.511 73.026V71.85H145.065V76.106H143.623V73.026H136.511ZM143.623 63.436H145.065V71.22H143.623V69.064H141.355V67.902H143.623V66.418H141.355V65.256H143.623V63.436Z" fill="#333333"/>
</svg>
