<svg width="240" height="79" viewBox="0 0 240 79" fill="none" xmlns="http://www.w3.org/2000/svg">
<line x1="25" y1="26.1" x2="120" y2="26.1" stroke="#4EC1BF" stroke-width="1.8"/>
<line x1="120" y1="26.1" x2="215" y2="26.1" stroke="#4EC1BF" stroke-width="1.8"/>
<circle cx="25" cy="25" r="24.1" fill="white" stroke="#4EC1BF" stroke-width="1.8"/>
<path d="M31.6668 20L22.5002 29.1667L18.3335 25" stroke="#4EC1BF" stroke-width="2" stroke-linecap="round" stroke-linejoin="round"/>
<circle cx="119" cy="25" r="24.1" fill="#4EC1BF" stroke="#4EC1BF" stroke-width="1.8"/>
<path d="M113.774 32V30.47C117.392 27.23 119.534 24.728 119.534 22.676C119.534 21.326 118.814 20.516 117.536 20.516C116.564 20.516 115.772 21.146 115.088 21.884L113.648 20.444C114.872 19.13 116.06 18.428 117.878 18.428C120.398 18.428 122.072 20.048 122.072 22.532C122.072 24.944 120.074 27.536 117.644 29.912C118.31 29.84 119.192 29.768 119.822 29.768H122.702V32H113.774Z" fill="white"/>
<circle cx="120" cy="25" r="24.1" fill="white" stroke="#4EC1BF" stroke-width="1.8"/>
<circle cx="120" cy="25" r="18.1" fill="#4EC1BF" stroke="#4EC1BF" stroke-width="1.8"/>
<path d="M114.774 32V30.47C118.392 27.23 120.534 24.728 120.534 22.676C120.534 21.326 119.814 20.516 118.536 20.516C117.564 20.516 116.772 21.146 116.088 21.884L114.648 20.444C115.872 19.13 117.06 18.428 118.878 18.428C121.398 18.428 123.072 20.048 123.072 22.532C123.072 24.944 121.074 27.536 118.644 29.912C119.31 29.84 120.192 29.768 120.822 29.768H123.702V32H114.774Z" fill="white"/>
<path d="M101.746 66.614H103.986V63.436H105.428V70.968H103.986V67.79H101.746V66.614ZM102.474 69.428L101.76 70.562C100.36 70.072 99.3522 69.078 98.8202 67.86C98.2602 69.246 97.1962 70.366 95.6982 70.898L94.9562 69.75C96.9162 69.05 98.0502 67.37 98.0502 65.634V65.452H95.3762V64.29H102.138V65.452H99.5062V65.62C99.5062 67.202 100.584 68.77 102.474 69.428ZM101.228 74.972C103.006 74.972 104.042 74.524 104.042 73.698C104.042 72.872 103.006 72.424 101.228 72.424C99.4222 72.424 98.4002 72.872 98.4002 73.698C98.4002 74.524 99.4222 74.972 101.228 74.972ZM101.228 71.304C103.86 71.304 105.484 72.2 105.484 73.698C105.484 75.21 103.86 76.092 101.228 76.092C98.5822 76.092 96.9582 75.21 96.9582 73.698C96.9582 72.2 98.5822 71.304 101.228 71.304ZM110.551 67.566V69.638H116.543V67.566H110.551ZM114.261 73.348H119.287V74.538H107.835V73.348H112.819V70.8H109.123V64.276H110.551V66.404H116.543V64.276H117.971V70.8H114.261V73.348ZM129.688 63.436H131.13V70.226H129.688V63.436ZM122.87 70.814H124.298V72.214H129.702V70.814H131.13V75.924H122.87V70.814ZM124.298 73.334V74.762H129.702V73.334H124.298ZM124.312 64.01C126.244 64.01 127.658 65.214 127.658 66.95C127.658 68.686 126.244 69.89 124.312 69.89C122.38 69.89 120.952 68.686 120.952 66.95C120.952 65.214 122.38 64.01 124.312 64.01ZM124.312 65.2C123.164 65.2 122.366 65.9 122.366 66.95C122.366 68.014 123.164 68.7 124.312 68.7C125.446 68.7 126.258 68.014 126.258 66.95C126.258 65.9 125.446 65.2 124.312 65.2ZM140.159 69.288L140.313 70.45C138.787 70.716 137.499 70.758 135.021 70.758H134.097V66.838H138.129V65.326H134.069V64.164H139.557V67.944H135.511V69.582C137.625 69.582 138.787 69.526 140.159 69.288ZM135.511 73.026V71.85H144.065V76.106H142.623V73.026H135.511ZM142.623 63.436H144.065V71.22H142.623V69.064H140.355V67.902H142.623V66.418H140.355V65.256H142.623V63.436Z" fill="#21A7A4"/>
<circle cx="215" cy="25" r="24.1" fill="white" stroke="#4EC1BF" stroke-width="1.8"/>
<path d="M213.932 32.252C211.826 32.252 210.404 31.46 209.468 30.398L210.71 28.724C211.502 29.498 212.474 30.092 213.68 30.092C215.03 30.092 215.948 29.426 215.948 28.22C215.948 26.924 215.174 26.096 212.276 26.096V24.206C214.724 24.206 215.516 23.36 215.516 22.172C215.516 21.128 214.868 20.516 213.734 20.516C212.78 20.516 212.006 20.948 211.214 21.686L209.864 20.066C211.016 19.058 212.294 18.428 213.86 18.428C216.434 18.428 218.18 19.706 218.18 21.974C218.18 23.414 217.37 24.458 215.966 25.016V25.106C217.46 25.52 218.612 26.636 218.612 28.382C218.612 30.83 216.47 32.252 213.932 32.252Z" fill="#4EC1BF"/>
</svg>
