<svg width="56" height="20" viewBox="0 0 56 20" fill="none" xmlns="http://www.w3.org/2000/svg">
<g id="&#237;&#142;&#171;&#237;&#138;&#184;&#235;&#166;&#172;">
<path d="M16.28 12.6896C15.04 12.6896 14.22 11.7896 14.38 9.96957C14.54 7.92957 14.54 5.58957 14.4 3.72957C14.22 1.74957 15.04 0.80957 16.28 0.80957C17.38 0.80957 18.2 1.60957 18.3 3.24957C18.4 5.32957 18.42 8.20957 18.3 10.2896C18.18 11.9096 17.38 12.6896 16.28 12.6896ZM8.48 7.98957C8.46 8.08957 8.42 8.20957 8.38 8.32957C9.12 8.54957 9.42 9.16957 9.42 10.1096C9.42 11.2096 9.04 11.8696 8 11.9696C5.96 12.2096 3.44 12.1696 1.44 11.8896C0.38 11.7496 0 11.1296 0 10.0296C0 9.04957 0.3 8.38957 1.16 8.20957C0.84 6.98957 0.84 6.06957 1.1 4.78957C0.3 4.56957 0 3.92957 0 3.00957C0 1.92957 0.38 1.26957 1.44 1.14957C3.44 0.90957 5.96 0.82957 8 1.06957C9.04 1.16957 9.42 1.82957 9.42 2.90957C9.42 3.80957 9.14 4.40957 8.46 4.64957C8.48 4.74957 8.5 4.82957 8.52 4.92957H10C9.98 4.58957 9.96 4.22957 9.94 3.88957C9.78 1.92957 10.56 1.02957 11.82 1.02957C12.92 1.02957 13.7 1.80957 13.82 3.38957C13.94 5.38957 13.94 7.82957 13.82 9.82957C13.7 11.4496 12.92 12.2096 11.82 12.2096C10.56 12.2096 9.74 11.2896 9.9 9.52957C9.94 9.00957 9.98 8.48957 10 7.98957H8.48ZM4.58 8.04957C4.76 8.04957 4.92 8.04957 5.1 8.04957C5.18 6.84957 5.18 5.98957 5.12 4.94957C4.94 4.94957 4.74 4.96957 4.56 4.96957C4.5 6.00957 4.5 6.86957 4.58 8.04957ZM8.92 15.1496C8.86 15.2896 8.96 15.4096 9.1 15.4496C10.08 15.6496 10.88 16.0696 10.88 17.2496C10.88 18.5296 9.12 18.9896 6.1 18.9896C3.14 18.9896 1.4 18.1696 1.4 16.5296C1.4 13.8096 4.74 12.5696 10.18 12.5696C15.52 12.5696 18.24 14.0096 18.24 16.6496C18.24 18.1296 17.38 18.9896 15.02 18.9896C12.52 18.9896 11.54 18.4296 11.44 17.1696C11.34 15.7296 10.44 15.2696 9.22 14.9696C9.08 14.9496 8.96 14.9896 8.92 15.1496Z" fill="white"/>
<path d="M23.1039 12.6896C21.2639 12.4296 20.2039 10.8696 20.2039 8.30957V5.44957C20.2039 3.20957 20.9039 2.06957 22.3239 1.96957C26.7639 1.64957 31.0239 1.64957 35.4439 1.82957C36.2439 1.84957 36.5239 2.30957 36.5239 2.98957C36.5239 3.60957 36.2439 4.28957 35.4439 4.28957H26.7239C26.3439 4.28957 26.3439 5.00957 26.7239 5.00957H35.2639C36.0639 5.00957 36.3439 5.44957 36.3439 6.10957C36.3439 6.76957 36.0639 7.10957 35.2639 7.12957L26.7239 7.16957C26.3239 7.16957 26.3239 7.98957 26.7239 7.98957L35.2839 7.94957C36.2039 7.94957 36.7639 8.86957 36.7639 10.3096C36.7639 11.7096 36.2039 12.4896 35.2839 12.6296C30.9239 13.2496 26.9239 13.2696 23.1039 12.6896ZM21.9239 18.6896C20.4039 18.5296 19.5039 17.6496 19.5039 15.9296C19.5039 14.5296 20.4039 13.3896 21.9239 13.5496C26.3839 13.9896 30.5239 13.9896 35.0039 13.5496C36.5439 13.3896 37.4239 14.5296 37.4239 15.9296C37.4239 17.6496 36.5439 18.5296 34.9839 18.6896C30.5239 19.1296 26.3839 19.1296 21.9239 18.6896Z" fill="white"/>
<path d="M53.0678 19.1896C51.4478 19.1896 50.3478 18.2696 50.5478 16.4696C51.0478 12.1696 51.0478 7.84957 50.5678 3.72957C50.3478 1.74957 51.4478 0.80957 53.0678 0.80957C54.4678 0.80957 55.4678 1.60957 55.6278 3.24957C56.0678 7.56957 56.0678 12.4496 55.6278 16.7896C55.4678 18.3896 54.4678 19.1896 53.0678 19.1896ZM38.7878 15.2696C38.5278 13.6096 38.4678 11.8696 38.7878 10.4296C39.1078 8.86957 39.6078 7.76957 41.3678 7.76957C42.6278 7.76957 44.0278 7.70957 45.3078 7.50957C45.6078 7.46957 45.6078 6.84957 45.3078 6.88957C44.1078 7.06957 42.8078 7.14957 41.6278 7.14957C39.4478 7.14957 38.7878 6.30957 38.7878 4.68957C38.7878 3.08957 39.7878 2.06957 41.7478 1.66957C43.3678 1.36957 44.6478 1.36957 46.0478 1.56957C47.6278 1.78957 48.9678 2.34957 49.3278 4.18957C49.6078 5.78957 49.6278 7.60957 49.3278 8.94957C49.1278 9.80957 48.5078 10.0896 47.6478 10.0896C45.3678 10.1096 43.2878 10.4496 41.9678 11.0696C41.6478 11.2296 41.8678 11.7896 42.1878 11.6696C43.3278 11.1696 45.2478 10.6896 46.6678 10.6896C48.8478 10.6896 49.8878 11.8496 50.0678 13.9496C50.3078 17.4896 47.6078 18.4096 44.7278 18.4096C41.2478 18.4096 39.0678 17.2696 38.7878 15.2696Z" fill="white"/>
</g>
</svg>
