<svg width="221" height="72" viewBox="0 0 221 72" fill="none" xmlns="http://www.w3.org/2000/svg">
<rect width="220" height="72" transform="translate(0.5)" fill="white"/>
<g clip-path="url(#clip0_262_199)">
<path d="M14 36C18.1421 36 21.5 32.6421 21.5 28.5C21.5 24.3579 18.1421 21 14 21C9.85786 21 6.5 24.3579 6.5 28.5C6.5 32.6421 9.85786 36 14 36Z" fill="#4FD4D2"/>
<path d="M27.5 24C31.6421 24 35 20.6421 35 16.5C35 12.3579 31.6421 9 27.5 9C23.3579 9 20 12.3579 20 16.5C20 20.6421 23.3579 24 27.5 24Z" fill="#4FD4D2"/>
<path d="M45.5 24C49.6421 24 53 20.6421 53 16.5C53 12.3579 49.6421 9 45.5 9C41.3579 9 38 12.3579 38 16.5C38 20.6421 41.3579 24 45.5 24Z" fill="#4FD4D2"/>
<path d="M59 36C63.1421 36 66.5 32.6421 66.5 28.5C66.5 24.3579 63.1421 21 59 21C54.8579 21 51.5 24.3579 51.5 28.5C51.5 32.6421 54.8579 36 59 36Z" fill="#4FD4D2"/>
<path d="M52.5199 44.58C49.9099 41.52 47.7199 38.91 45.0799 35.85C43.6999 34.23 41.9299 32.61 39.8299 31.89C39.4999 31.77 39.1699 31.68 38.8399 31.62C38.0899 31.5 37.2799 31.5 36.4999 31.5C35.7199 31.5 34.9099 31.5 34.1299 31.65C33.7999 31.71 33.4699 31.8 33.1399 31.92C31.0399 32.64 29.2999 34.26 27.8899 35.88C25.2799 38.94 23.0899 41.55 20.4499 44.61C16.5199 48.54 11.6899 52.89 12.5899 58.98C13.4599 62.04 15.6499 65.07 19.5799 65.94C21.7699 66.39 28.7599 64.62 36.1999 64.62H36.7399C44.1799 64.62 51.1699 66.36 53.3599 65.94C57.2899 65.07 59.4799 62.01 60.3499 58.98C61.2799 52.86 56.4499 48.51 52.5199 44.58Z" fill="#4FD4D2"/>
</g>
<path d="M127.1 41.5C124.62 41.5 122.98 39.7 123.3 36.06C123.62 31.98 123.62 27.3 123.34 23.58C122.98 19.62 124.62 17.74 127.1 17.74C129.3 17.74 130.94 19.34 131.14 22.62C131.34 26.78 131.38 32.54 131.14 36.7C130.9 39.94 129.3 41.5 127.1 41.5ZM111.5 32.1C111.46 32.3 111.38 32.54 111.3 32.78C112.78 33.22 113.38 34.46 113.38 36.34C113.38 38.54 112.62 39.86 110.54 40.06C106.46 40.54 101.42 40.46 97.42 39.9C95.3 39.62 94.54 38.38 94.54 36.18C94.54 34.22 95.14 32.9 96.86 32.54C96.22 30.1 96.22 28.26 96.74 25.7C95.14 25.26 94.54 23.98 94.54 22.14C94.54 19.98 95.3 18.66 97.42 18.42C101.42 17.94 106.46 17.78 110.54 18.26C112.62 18.46 113.38 19.78 113.38 21.94C113.38 23.74 112.82 24.94 111.46 25.42C111.5 25.62 111.54 25.78 111.58 25.98H114.54C114.5 25.3 114.46 24.58 114.42 23.9C114.1 19.98 115.66 18.18 118.18 18.18C120.38 18.18 121.94 19.74 122.18 22.9C122.42 26.9 122.42 31.78 122.18 35.78C121.94 39.02 120.38 40.54 118.18 40.54C115.66 40.54 114.02 38.7 114.34 35.18C114.42 34.14 114.5 33.1 114.54 32.1H111.5ZM103.7 32.22C104.06 32.22 104.38 32.22 104.74 32.22C104.9 29.82 104.9 28.1 104.78 26.02C104.42 26.02 104.02 26.06 103.66 26.06C103.54 28.14 103.54 29.86 103.7 32.22ZM112.38 46.42C112.26 46.7 112.46 46.94 112.74 47.02C114.7 47.42 116.3 48.26 116.3 50.62C116.3 53.18 112.78 54.1 106.74 54.1C100.82 54.1 97.34 52.46 97.34 49.18C97.34 43.74 104.02 41.26 114.9 41.26C125.58 41.26 131.02 44.14 131.02 49.42C131.02 52.38 129.3 54.1 124.58 54.1C119.58 54.1 117.62 52.98 117.42 50.46C117.22 47.58 115.42 46.66 112.98 46.06C112.7 46.02 112.46 46.1 112.38 46.42ZM140.748 41.5C137.068 40.98 134.948 37.86 134.948 32.74V27.02C134.948 22.54 136.348 20.26 139.188 20.06C148.068 19.42 156.588 19.42 165.428 19.78C167.028 19.82 167.588 20.74 167.588 22.1C167.588 23.34 167.028 24.7 165.428 24.7H147.988C147.228 24.7 147.228 26.14 147.988 26.14H165.068C166.668 26.14 167.228 27.02 167.228 28.34C167.228 29.66 166.668 30.34 165.068 30.38L147.988 30.46C147.188 30.46 147.188 32.1 147.988 32.1L165.108 32.02C166.948 32.02 168.068 33.86 168.068 36.74C168.068 39.54 166.948 41.1 165.108 41.38C156.388 42.62 148.388 42.66 140.748 41.5ZM138.388 53.5C135.348 53.18 133.548 51.42 133.548 47.98C133.548 45.18 135.348 42.9 138.388 43.22C147.308 44.1 155.588 44.1 164.548 43.22C167.628 42.9 169.388 45.18 169.388 47.98C169.388 51.42 167.628 53.18 164.508 53.5C155.588 54.38 147.308 54.38 138.388 53.5ZM200.676 54.5C197.436 54.5 195.236 52.66 195.636 49.06C196.636 40.46 196.636 31.82 195.676 23.58C195.236 19.62 197.436 17.74 200.676 17.74C203.476 17.74 205.476 19.34 205.796 22.62C206.676 31.26 206.676 41.02 205.796 49.7C205.476 52.9 203.476 54.5 200.676 54.5ZM172.116 46.66C171.596 43.34 171.476 39.86 172.116 36.98C172.756 33.86 173.756 31.66 177.276 31.66C179.796 31.66 182.596 31.54 185.156 31.14C185.756 31.06 185.756 29.82 185.156 29.9C182.756 30.26 180.156 30.42 177.796 30.42C173.436 30.42 172.116 28.74 172.116 25.5C172.116 22.3 174.116 20.26 178.036 19.46C181.276 18.86 183.836 18.86 186.636 19.26C189.796 19.7 192.476 20.82 193.196 24.5C193.756 27.7 193.796 31.34 193.196 34.02C192.796 35.74 191.556 36.3 189.836 36.3C185.276 36.34 181.116 37.02 178.476 38.26C177.836 38.58 178.276 39.7 178.916 39.46C181.196 38.46 185.036 37.5 187.876 37.5C192.236 37.5 194.316 39.82 194.676 44.02C195.156 51.1 189.756 52.94 183.996 52.94C177.036 52.94 172.676 50.66 172.116 46.66Z" fill="#4FD4D2"/>
<defs>
<clipPath id="clip0_262_199">
<rect width="72" height="72" fill="white" transform="translate(0.5)"/>
</clipPath>
</defs>
</svg>
