<svg width="240" height="144" viewBox="0 0 240 144" fill="none" xmlns="http://www.w3.org/2000/svg">
<rect width="240" height="144" rx="12" fill="#F5F5F5"/>
<rect x="93.1396" y="49" width="2.72093" height="13" rx="1.36047" fill="#AEAEAE"/>
<rect x="101" y="54.1406" width="2.72093" height="13" rx="1.36047" transform="rotate(90 101 54.1406)" fill="#AEAEAE"/>
<g clip-path="url(#clip0_1471_1376)">
<path d="M150.871 57.4456L147.641 87.7826C147.512 90.0579 146.09 90.3107 143.765 89.9315V87.4034L144.928 87.6562L148.158 57.1927L113.662 53.6534L113.274 57.9512L110.432 58.0776L110.948 53.4006C111.078 51.8838 112.499 50.8725 113.92 50.9989L148.416 54.5383C149.966 54.6647 151.129 56.0551 150.871 57.4456ZM141.181 60.7321L142.602 91.7012C142.731 93.218 141.569 94.4821 140.018 94.4821L105.264 95.9989C103.713 96.1253 102.421 94.9877 102.421 93.4708L101 62.5017C100.871 60.9849 102.034 59.7208 103.584 59.7208L138.339 58.204C139.76 58.0776 141.052 59.2152 141.181 60.7321ZM105.134 92.9652L139.889 91.4484L138.468 60.8585L103.713 62.3753L105.134 92.9652ZM138.08 82.3472C138.08 81.4624 137.693 80.4512 137.047 79.8192L134.592 77.2911C133.687 76.5326 132.395 76.5326 131.62 77.4175L127.227 82.4736L117.667 70.9708C116.892 69.9596 115.341 69.9596 114.437 70.9708L106.943 80.5776C106.426 81.336 106.039 82.2208 106.168 83.2321L106.556 91.8276L138.468 90.1843L138.08 82.3472ZM132.525 71.7293C134.592 71.6029 136.142 69.9596 136.142 67.9371C136.013 65.9147 134.333 64.3978 132.266 64.3978C130.199 64.5242 128.649 66.1675 128.649 68.1899C128.649 70.3388 130.457 71.8557 132.525 71.7293Z" fill="#AEAEAE"/>
</g>
<defs>
<clipPath id="clip0_1471_1376">
<rect width="50" height="45" fill="white" transform="translate(101 51)"/>
</clipPath>
</defs>
</svg>
