<svg width="36" height="34" viewBox="0 0 36 34" fill="none" xmlns="http://www.w3.org/2000/svg">
<path d="M21.2315 0.72831C21.9168 0.728255 22.5903 0.907265 23.1851 1.2476C23.7799 1.58794 24.2755 2.07779 24.6227 2.66863L26.0456 5.09315H29.6658C31.1722 5.09315 32.617 5.69145 33.6823 6.75649C34.7477 7.82153 35.3464 9.26609 35.3469 10.7725V27.3788C35.3469 28.1249 35.2 28.8636 34.9145 29.5529C34.629 30.2422 34.2105 30.8684 33.6829 31.396C33.1554 31.9235 32.5291 32.342 31.8399 32.6275C31.1506 32.913 30.4118 33.0599 29.6658 33.0599H6.06734C4.56062 33.0599 3.1156 32.4614 2.05019 31.396C0.984774 30.3306 0.38623 28.8855 0.38623 27.3788V10.7725C0.38623 9.26579 0.984774 7.82077 2.05019 6.75536C3.1156 5.68994 4.56062 5.0914 6.06734 5.0914H9.70325L11.2328 2.6022C11.5845 2.02923 12.0771 1.55597 12.6638 1.22761C13.2504 0.899246 13.9115 0.72674 14.5838 0.726562H21.2315V0.72831ZM17.8666 10.3355C15.7803 10.3355 13.7795 11.1643 12.3044 12.6394C10.8292 14.1146 10.0004 16.1154 10.0004 18.2017C10.0004 20.2879 10.8292 22.2887 12.3044 23.7639C13.7795 25.239 15.7803 26.0678 17.8666 26.0678C19.9528 26.0678 21.9536 25.239 23.4288 23.7639C24.904 22.2887 25.7327 20.2879 25.7327 18.2017C25.7327 16.1154 24.904 14.1146 23.4288 12.6394C21.9536 11.1643 19.9528 10.3355 17.8666 10.3355ZM17.8666 12.9576C18.5552 12.9576 19.2372 13.0932 19.8734 13.3567C20.5096 13.6203 21.0877 14.0066 21.5747 14.4935C22.0617 14.9805 22.4479 15.5586 22.7115 16.1948C22.975 16.8311 23.1107 17.513 23.1107 18.2017C23.1107 18.8903 22.975 19.5722 22.7115 20.2085C22.4479 20.8447 22.0617 21.4228 21.5747 21.9098C21.0877 22.3967 20.5096 22.783 19.8734 23.0466C19.2372 23.3101 18.5552 23.4458 17.8666 23.4458C16.4757 23.4458 15.1419 22.8932 14.1584 21.9098C13.175 20.9263 12.6225 19.5925 12.6225 18.2017C12.6225 16.8108 13.175 15.477 14.1584 14.4935C15.1419 13.5101 16.4757 12.9576 17.8666 12.9576Z" fill="white"/>
</svg>
