<svg width="243" height="280" viewBox="0 0 243 280" fill="none" xmlns="http://www.w3.org/2000/svg">
<g opacity="0.6">
<path d="M192.841 166.858C188.83 170.193 182.875 169.645 179.54 165.634C176.206 161.623 176.753 155.669 180.764 152.334C184.775 148.999 190.73 149.547 194.065 153.558C197.4 157.568 196.852 163.523 192.841 166.858Z" fill="#8CFFFD"/>
<path d="M170.108 166.108C166.097 169.442 160.142 168.894 156.807 164.884C153.472 160.873 154.02 154.918 158.031 151.583C162.042 148.248 167.997 148.796 171.332 152.807C174.666 156.818 174.118 162.773 170.108 166.108Z" fill="#8CFFFD"/>
<path d="M152.678 180.599C148.667 183.934 142.713 183.386 139.378 179.376C136.043 175.365 136.591 169.41 140.602 166.075C144.612 162.74 150.567 163.288 153.902 167.299C157.237 171.31 156.689 177.265 152.678 180.599Z" fill="#8CFFFD"/>
<path d="M149.268 203.088C145.257 206.423 139.302 205.875 135.967 201.864C132.632 197.853 133.18 191.898 137.191 188.564C141.202 185.229 147.157 185.777 150.491 189.787C153.826 193.798 153.278 199.753 149.268 203.088Z" fill="#8CFFFD"/>
<path d="M162.45 206.179C162.514 201.115 162.533 196.824 162.626 191.736C162.658 189.056 163.067 186.062 164.521 183.674C164.744 183.292 164.991 182.94 165.262 182.616C165.892 181.896 166.676 181.244 167.431 180.616C168.187 179.988 168.971 179.336 169.847 178.853C170.215 178.645 170.607 178.467 171.023 178.317C173.636 177.324 176.625 177.491 179.295 177.925C184.286 178.786 188.508 179.551 193.527 180.388C200.497 181.029 208.676 181.353 212.708 187.974C214.329 191.638 214.648 196.335 211.543 200.341C209.785 202.54 201.591 206.454 194.387 212.444L193.864 212.879C186.66 218.869 181.292 226.181 178.834 227.538C174.328 229.86 169.744 228.66 166.462 226.426C160.634 221.249 161.809 213.148 162.45 206.179Z" fill="#8CFFFD"/>
<path d="M95.5624 113.889C92.9624 116.761 88.5269 116.981 85.6554 114.381C82.7839 111.781 82.5638 107.345 85.1638 104.474C87.7638 101.602 92.1994 101.382 95.0708 103.982C97.9423 106.582 98.1624 111.018 95.5624 113.889Z" fill="#8CFFFD"/>
<path d="M78.7696 115.716C76.1696 118.587 71.7341 118.807 68.8627 116.207C65.9912 113.607 65.7711 109.172 68.3711 106.3C70.9711 103.429 75.4066 103.209 78.2781 105.809C81.1496 108.409 81.3696 112.844 78.7696 115.716Z" fill="#8CFFFD"/>
<path d="M67.4711 128.194C64.8711 131.065 60.4356 131.285 57.5641 128.685C54.6926 126.085 54.4726 121.65 57.0726 118.778C59.6726 115.907 64.1081 115.687 66.9796 118.287C69.851 120.887 70.0711 125.322 67.4711 128.194Z" fill="#8CFFFD"/>
<path d="M67.316 145.085C64.716 147.956 60.2805 148.176 57.409 145.576C54.5376 142.976 54.3175 138.541 56.9175 135.669C59.5175 132.798 63.953 132.578 66.8245 135.178C69.696 137.778 69.916 142.213 67.316 145.085Z" fill="#8CFFFD"/>
<path d="M77.3315 145.978C76.8485 142.248 76.4138 139.092 75.9496 135.341C75.6928 133.367 75.6808 131.123 76.4998 129.216C76.6238 128.912 76.7685 128.626 76.9341 128.36C77.3216 127.765 77.8301 127.203 78.3197 126.662C78.8093 126.122 79.3177 125.56 79.9113 125.114C80.16 124.922 80.4296 124.75 80.7199 124.597C82.5372 123.593 84.7524 123.404 86.7605 123.443C90.5201 123.554 93.7041 123.674 97.4825 123.765C102.674 123.507 108.721 122.89 112.378 127.336C113.953 129.86 114.679 133.28 112.815 136.551C111.753 138.351 106.138 142.086 101.468 147.244L101.129 147.618C96.4589 152.776 93.2776 158.714 91.6118 159.968C88.5418 162.147 85.0458 161.744 82.3992 160.445C77.5729 157.248 77.5891 151.17 77.3315 145.978Z" fill="#8CFFFD"/>
<path d="M110.895 42.9934C108.302 45.0772 104.51 44.6642 102.427 42.0709C100.343 39.4776 100.756 35.6861 103.349 33.6023C105.942 31.5185 109.734 31.9316 111.818 34.5249C113.901 37.1181 113.488 40.9097 110.895 42.9934Z" fill="#8CFFFD"/>
<path d="M96.4063 42.272C93.813 44.3558 90.0215 43.9427 87.9377 41.3494C85.8539 38.7561 86.267 34.9646 88.8603 32.8809C91.4535 30.7971 95.245 31.2101 97.3288 33.8034C99.4126 36.3967 98.9996 40.1882 96.4063 42.272Z" fill="#8CFFFD"/>
<path d="M85.1369 51.3272C82.5437 53.411 78.7521 52.998 76.6684 50.4047C74.5846 47.8114 74.9976 44.0199 77.5909 41.9361C80.1842 39.8523 83.9757 40.2654 86.0595 42.8586C88.1433 45.4519 87.7302 49.2434 85.1369 51.3272Z" fill="#8CFFFD"/>
<path d="M82.7218 65.6315C80.1285 67.7153 76.337 67.3023 74.2532 64.709C72.1694 62.1157 72.5825 58.3242 75.1757 56.2404C77.769 54.1566 81.5605 54.5697 83.6443 57.163C85.7281 59.7562 85.3151 63.5478 82.7218 65.6315Z" fill="#8CFFFD"/>
<path d="M91.0951 67.7433C91.1898 64.5145 91.2479 61.7788 91.3613 58.5349C91.4103 56.8264 91.7035 54.9217 92.656 53.4145C92.8023 53.1734 92.9636 52.951 93.14 52.7474C93.5492 52.295 94.0563 51.8875 94.5447 51.4951C95.033 51.1027 95.5401 50.6952 96.1039 50.3968C96.3407 50.2683 96.5926 50.1586 96.8596 50.0678C98.5365 49.4621 100.441 49.601 102.139 49.9059C105.312 50.5087 107.996 51.041 111.188 51.6287C115.626 52.1121 120.838 52.4057 123.338 56.6713C124.333 59.0247 124.486 62.0234 122.464 64.5452C121.319 65.9286 116.052 68.337 111.394 72.0798L111.056 72.3514C106.398 76.0943 102.897 80.7001 101.315 81.5389C98.4166 82.9712 95.5061 82.1572 93.4371 80.6978C89.7761 77.3341 90.6117 72.1809 91.0951 67.7433Z" fill="#8CFFFD"/>
</g>
</svg>
