<svg width="122" height="206" viewBox="0 0 122 206" fill="none" xmlns="http://www.w3.org/2000/svg">
<path d="M103.654 168.962C99.0261 167.481 96.4769 162.537 97.9607 157.919C99.4445 153.301 104.399 150.757 109.028 152.238C113.656 153.718 116.205 158.662 114.721 163.281C113.238 167.899 108.283 170.442 103.654 168.962Z" fill="#8CFFFD" fill-opacity="0.6"/>
<path d="M92.8684 150.757C88.2401 149.277 85.6909 144.333 87.1747 139.714C88.6584 135.096 93.6133 132.552 98.2416 134.033C102.87 135.513 105.419 140.458 103.935 145.076C102.452 149.694 97.4967 152.238 92.8684 150.757Z" fill="#8CFFFD" fill-opacity="0.6"/>
<path d="M72.7556 144.323C68.1273 142.843 65.5781 137.899 67.0619 133.28C68.5456 128.662 73.5005 126.119 78.1288 127.599C82.7571 129.08 85.3063 134.024 83.8225 138.642C82.3388 143.26 77.3839 145.804 72.7556 144.323Z" fill="#8CFFFD" fill-opacity="0.6"/>
<path d="M53.3724 152.877C48.7441 151.397 46.1949 146.453 47.6787 141.834C49.1625 137.216 54.1173 134.673 58.7456 136.153C63.374 137.634 65.9231 142.578 64.4394 147.196C62.9556 151.814 58.0008 154.358 53.3724 152.877Z" fill="#8CFFFD" fill-opacity="0.6"/>
<path d="M57.5396 164.76C61.5521 162.281 64.9341 160.154 68.9801 157.686C71.1024 156.373 73.6605 155.199 76.2649 155.147C76.6766 155.131 77.0776 155.149 77.4678 155.2C78.3488 155.334 79.2539 155.624 80.1255 155.902C80.997 156.181 81.9021 156.471 82.7199 156.917C83.0672 157.102 83.4036 157.32 83.7294 157.572C85.818 159.125 87.1819 161.553 88.1771 163.863C89.9973 168.208 91.5095 171.901 93.3632 176.256C96.3467 182.043 100.185 188.619 96.9983 195.087C94.93 198.188 91.3976 200.784 86.6946 200.349C84.0864 200.068 76.9099 195.596 68.5966 192.937L67.9933 192.744C59.68 190.084 51.2462 189.526 48.9496 188.275C44.8699 185.9 43.519 181.706 43.6323 178.016C44.7854 170.86 51.7406 167.737 57.5396 164.76Z" fill="#8CFFFD" fill-opacity="0.6"/>
<path d="M51.0345 95.1935C47.5523 96.1414 43.9593 94.0932 43.0092 90.6185C42.0592 87.1439 44.112 83.5587 47.5942 82.6107C51.0764 81.6628 54.6694 83.7111 55.6194 87.1857C56.5694 90.6603 54.5167 94.2455 51.0345 95.1935Z" fill="#8CFFFD" fill-opacity="0.6"/>
<path d="M36.9331 88.2169C33.4509 89.1648 29.8579 87.1165 28.9078 83.6419C27.9578 80.1673 30.0106 76.5821 33.4928 75.6341C36.9749 74.6862 40.568 76.7344 41.518 80.2091C42.468 83.6837 40.4153 87.2689 36.9331 88.2169Z" fill="#8CFFFD" fill-opacity="0.6"/>
<path d="M21.8009 92.3363C18.3187 93.2842 14.7257 91.236 13.7756 87.7613C12.8256 84.2867 14.8784 80.7015 18.3606 79.7535C21.8428 78.8056 25.4358 80.8539 26.3858 84.3285C27.3358 87.8031 25.2831 91.3883 21.8009 92.3363Z" fill="#8CFFFD" fill-opacity="0.6"/>
<path d="M13.204 105.492C9.72182 106.44 6.12879 104.392 5.17877 100.917C4.22875 97.4425 6.28148 93.8572 9.76369 92.9093C13.2459 91.9613 16.8389 94.0096 17.7889 97.4842C18.7389 100.959 16.6862 104.544 13.204 105.492Z" fill="#8CFFFD" fill-opacity="0.6"/>
<path d="M20.6195 111.206C22.1119 108.042 23.3543 105.352 24.8719 102.181C25.6605 100.506 26.7769 98.7417 28.3772 97.6572C28.6271 97.481 28.8839 97.33 29.1475 97.2041C29.7505 96.9318 30.4315 96.7464 31.0872 96.5679C31.7429 96.3894 32.4239 96.204 33.114 96.1514C33.4052 96.1262 33.7033 96.1261 34.0082 96.1513C35.9388 96.2746 37.7731 97.2354 39.33 98.2716C42.226 100.241 44.6657 101.929 47.5869 103.892C51.7921 106.289 56.8503 108.833 57.4905 114.148C57.4609 116.914 56.3148 119.956 53.2105 121.586C51.4726 122.464 45.1903 122.579 38.9357 124.282L38.4817 124.406C32.2271 126.108 26.7498 129.168 24.8124 129.316C21.309 129.486 18.7661 127.42 17.3397 125.078C15.1543 120.157 18.217 115.402 20.6195 111.206Z" fill="#8CFFFD" fill-opacity="0.6"/>
<path d="M74.3177 28.8782C71.6313 27.9866 70.1778 25.0909 71.0713 22.4103C71.9648 19.7297 74.8668 18.2795 77.5532 19.171C80.2396 20.0625 81.6931 22.9583 80.7996 25.6388C79.9061 28.3194 77.0041 29.7697 74.3177 28.8782Z" fill="#8CFFFD" fill-opacity="0.6"/>
<path d="M68.1506 18.2067C65.4642 17.3152 64.0108 14.4194 64.9043 11.7389C65.7978 9.05832 68.6998 7.60803 71.3862 8.49957C74.0726 9.39111 75.5261 12.2869 74.6326 14.9674C73.7391 17.648 70.837 19.0983 68.1506 18.2067Z" fill="#8CFFFD" fill-opacity="0.6"/>
<path d="M56.4767 14.3325C53.7903 13.4409 52.3368 10.5452 53.2303 7.86463C54.1238 5.18407 57.0258 3.73378 59.7122 4.62532C62.3986 5.51686 63.8521 8.41261 62.9586 11.0932C62.0651 13.7737 59.1631 15.224 56.4767 14.3325Z" fill="#8CFFFD" fill-opacity="0.6"/>
<path d="M45.1327 19.1925C42.4463 18.301 40.9929 15.4052 41.8863 12.7247C42.7798 10.0441 45.6819 8.59383 48.3683 9.48536C51.0547 10.3769 52.5081 13.2727 51.6147 15.9532C50.7212 18.6338 47.8191 20.0841 45.1327 19.1925Z" fill="#8CFFFD" fill-opacity="0.6"/>
<path d="M47.4846 26.1398C49.8374 24.7213 51.8207 23.5036 54.193 22.0916C55.4374 21.3402 56.9348 20.6728 58.4521 20.6589C58.692 20.6522 58.9254 20.665 59.1524 20.6972C59.6647 20.781 60.19 20.9553 60.6959 21.1232C61.2018 21.2911 61.7271 21.4654 62.2006 21.7304C62.4017 21.8402 62.5963 21.9695 62.7844 22.1182C63.9911 23.0361 64.7701 24.459 65.3352 25.8109C66.3678 28.3529 67.2252 30.5133 68.2773 33.0618C69.9784 36.451 72.1726 40.3056 70.2753 44.053C69.051 45.846 66.977 47.3355 64.2406 47.0526C62.7232 46.8725 58.5716 44.2225 53.7463 42.6212L53.3961 42.505C48.5708 40.9036 43.6621 40.5251 42.3324 39.782C39.9712 38.3731 39.211 35.9214 39.3003 33.7733C40.0173 29.6126 44.0881 27.8372 47.4846 26.1398Z" fill="#8CFFFD" fill-opacity="0.6"/>
</svg>
