<svg width="344" height="108" viewBox="0 0 344 108" fill="none" xmlns="http://www.w3.org/2000/svg">
<path d="M20.2157 53.909C26.4189 53.909 31.4476 48.8803 31.4476 42.6772C31.4476 36.474 26.4189 31.4453 20.2157 31.4453C14.0126 31.4453 8.98389 36.474 8.98389 42.6772C8.98389 48.8803 14.0126 53.909 20.2157 53.909Z" fill="#73E6E4"/>
<path d="M40.434 35.9403C46.6372 35.9403 51.6658 30.9116 51.6658 24.7084C51.6658 18.5052 46.6372 13.4766 40.434 13.4766C34.2308 13.4766 29.2021 18.5052 29.2021 24.7084C29.2021 30.9116 34.2308 35.9403 40.434 35.9403Z" fill="#73E6E4"/>
<path d="M67.3896 35.9403C73.5927 35.9403 78.6214 30.9116 78.6214 24.7084C78.6214 18.5052 73.5927 13.4766 67.3896 13.4766C61.1864 13.4766 56.1577 18.5052 56.1577 24.7084C56.1577 30.9116 61.1864 35.9403 67.3896 35.9403Z" fill="#73E6E4"/>
<path d="M87.6073 53.909C93.8105 53.909 98.8392 48.8803 98.8392 42.6772C98.8392 36.474 93.8105 31.4453 87.6073 31.4453C81.4042 31.4453 76.3755 36.474 76.3755 42.6772C76.3755 48.8803 81.4042 53.909 87.6073 53.909Z" fill="#73E6E4"/>
<path d="M77.9027 66.7641C73.994 62.1815 70.7143 58.2728 66.7607 53.6903C64.6941 51.2642 62.0434 48.8381 58.8984 47.7598C58.4042 47.5801 57.91 47.4453 57.4158 47.3555C56.2927 47.1758 55.0796 47.1758 53.9115 47.1758C52.7434 47.1758 51.5303 47.1758 50.3622 47.4004C49.868 47.4903 49.3738 47.6251 48.8796 47.8048C45.7347 48.883 43.1289 51.3091 41.0173 53.7352C37.1087 58.3178 33.829 62.2265 29.8753 66.809C23.9899 72.6945 16.7566 79.209 18.1044 88.3293C19.4073 92.9119 22.687 97.4495 28.5725 98.7524C31.8522 99.4263 42.3202 96.7756 53.4622 96.7756H54.2709C65.4129 96.7756 75.881 99.3814 79.1607 98.7524C85.0462 97.4495 88.3259 92.8669 89.6288 88.3293C91.0215 79.1641 83.7882 72.6496 77.9027 66.7641Z" fill="#73E6E4"/>
<path d="M188.514 64.414C183.673 64.414 180.472 60.9004 181.097 53.7952C181.721 45.8312 181.721 36.696 181.175 29.4347C180.472 21.7049 183.673 18.0352 188.514 18.0352C192.808 18.0352 196.01 21.1583 196.4 27.5608C196.791 35.681 196.869 46.9243 196.4 55.0445C195.932 61.3689 192.808 64.414 188.514 64.414ZM158.063 46.0654C157.985 46.4558 157.829 46.9243 157.673 47.3928C160.562 48.2517 161.733 50.6721 161.733 54.3418C161.733 58.6361 160.25 61.2127 156.19 61.6031C148.225 62.5401 138.388 62.3839 130.58 61.2908C126.442 60.7443 124.958 58.3238 124.958 54.0295C124.958 50.2036 126.129 47.627 129.487 46.9243C128.237 42.1615 128.237 38.5699 129.252 33.5728C126.129 32.714 124.958 30.2155 124.958 26.6238C124.958 22.4076 126.442 19.831 130.58 19.3625C138.388 18.4255 148.225 18.1132 156.19 19.0502C160.25 19.4406 161.733 22.0172 161.733 26.2334C161.733 29.747 160.64 32.0893 157.985 33.0263C158.063 33.4167 158.142 33.729 158.22 34.1194H163.997C163.919 32.7921 163.841 31.3866 163.763 30.0593C163.139 22.4076 166.184 18.894 171.103 18.894C175.397 18.894 178.442 21.9391 178.91 28.1073C179.379 35.9152 179.379 45.4408 178.91 53.2487C178.442 59.5731 175.397 62.5401 171.103 62.5401C166.184 62.5401 162.982 58.9484 163.607 52.0775C163.763 50.0475 163.919 48.0174 163.997 46.0654H158.063ZM142.838 46.2997C143.541 46.2997 144.165 46.2997 144.868 46.2997C145.18 41.615 145.18 38.2576 144.946 34.1975C144.243 34.1975 143.463 34.2755 142.76 34.2755C142.526 38.3356 142.526 41.693 142.838 46.2997ZM159.781 74.0177C159.547 74.5642 159.937 75.0327 160.484 75.1888C164.31 75.9696 167.433 77.6093 167.433 82.2159C167.433 87.213 160.562 89.0088 148.772 89.0088C137.216 89.0088 130.424 85.8076 130.424 79.4051C130.424 68.7864 143.463 63.9455 164.7 63.9455C185.547 63.9455 196.166 69.5672 196.166 79.8736C196.166 85.6514 192.808 89.0088 183.595 89.0088C173.835 89.0088 170.009 86.8226 169.619 81.9036C169.229 76.2819 165.715 74.4861 160.952 73.3149C160.406 73.2369 159.937 73.393 159.781 74.0177Z" fill="#73E6E4"/>
<path d="M215.154 64.414C207.971 63.3989 203.833 57.3088 203.833 47.3147V36.1494C203.833 27.4046 206.566 22.9541 212.109 22.5637C229.443 21.3145 246.073 21.3145 263.329 22.0172C266.452 22.0953 267.545 23.8911 267.545 26.5457C267.545 28.9662 266.452 31.6209 263.329 31.6209H229.287C227.803 31.6209 227.803 34.4317 229.287 34.4317H262.626C265.749 34.4317 266.842 36.1494 266.842 38.726C266.842 41.3026 265.749 42.63 262.626 42.7081L229.287 42.8642C227.725 42.8642 227.725 46.0654 229.287 46.0654L262.704 45.9093C266.296 45.9093 268.482 49.5009 268.482 55.1226C268.482 60.5881 266.296 63.6332 262.704 64.1797C245.683 66.6002 230.067 66.6782 215.154 64.414ZM210.548 87.8376C204.614 87.213 201.1 83.7775 201.1 77.0627C201.1 71.5972 204.614 67.1467 210.548 67.7714C227.959 69.4891 244.122 69.4891 261.611 67.7714C267.623 67.1467 271.059 71.5972 271.059 77.0627C271.059 83.7775 267.623 87.213 261.533 87.8376C244.122 89.5553 227.959 89.5553 210.548 87.8376Z" fill="#73E6E4"/>
<path d="M332.132 89.7896C325.807 89.7896 321.513 86.198 322.294 79.1709C324.246 62.3839 324.246 45.5189 322.372 29.4347C321.513 21.7049 325.807 18.0352 332.132 18.0352C337.597 18.0352 341.501 21.1583 342.126 27.5608C343.843 44.4258 343.843 63.477 342.126 80.4201C341.501 86.6664 337.597 89.7896 332.132 89.7896ZM276.383 74.4861C275.368 68.0056 275.134 61.2127 276.383 55.5911C277.633 49.5009 279.585 45.2066 286.455 45.2066C291.374 45.2066 296.84 44.9723 301.837 44.1916C303.008 44.0354 303.008 41.615 301.837 41.7711C297.152 42.4738 292.077 42.7861 287.47 42.7861C278.96 42.7861 276.383 39.5068 276.383 33.1824C276.383 26.9361 280.287 22.9541 287.939 21.3925C294.263 20.2214 299.26 20.2214 304.726 21.0021C310.894 21.861 316.125 24.0472 317.531 31.2305C318.624 37.4768 318.702 44.5819 317.531 49.8132C316.75 53.1706 314.33 54.2637 310.972 54.2637C302.071 54.3418 293.951 55.6691 288.798 58.0896C287.549 58.7142 288.407 60.9004 289.657 60.4319C294.107 58.48 301.603 56.6061 307.146 56.6061C315.657 56.6061 319.717 61.1347 320.42 69.3329C321.357 83.1529 310.816 86.7445 299.573 86.7445C285.987 86.7445 277.476 82.294 276.383 74.4861Z" fill="#73E6E4"/>
</svg>
