<svg width="109" height="108" viewBox="0 0 109 108" fill="none" xmlns="http://www.w3.org/2000/svg">
<g clipPath="url(#clip0_2110_1924)">
<path d="M20.5087 53.9949C26.7119 53.9949 31.7405 48.9663 31.7405 42.7631C31.7405 36.5599 26.7119 31.5312 20.5087 31.5312C14.3055 31.5312 9.27686 36.5599 9.27686 42.7631C9.27686 48.9663 14.3055 53.9949 20.5087 53.9949Z" fill="#A09185"/>
<path d="M40.727 36.0262C46.9301 36.0262 51.9588 30.9975 51.9588 24.7943C51.9588 18.5912 46.9301 13.5625 40.727 13.5625C34.5238 13.5625 29.4951 18.5912 29.4951 24.7943C29.4951 30.9975 34.5238 36.0262 40.727 36.0262Z" fill="#A09185"/>
<path d="M67.6825 36.0262C73.8857 36.0262 78.9144 30.9975 78.9144 24.7943C78.9144 18.5912 73.8857 13.5625 67.6825 13.5625C61.4794 13.5625 56.4507 18.5912 56.4507 24.7943C56.4507 30.9975 61.4794 36.0262 67.6825 36.0262Z" fill="#A09185"/>
<path d="M87.9003 53.9949C94.1035 53.9949 99.1321 48.9663 99.1321 42.7631C99.1321 36.5599 94.1035 31.5312 87.9003 31.5312C81.6971 31.5312 76.6685 36.5599 76.6685 42.7631C76.6685 48.9663 81.6971 53.9949 87.9003 53.9949Z" fill="#A09185"/>
<path d="M78.1957 66.854C74.287 62.2714 71.0073 58.3627 67.0537 53.7801C64.987 51.354 62.3363 48.9279 59.1914 47.8497C58.6972 47.67 58.203 47.5352 57.7088 47.4453C56.5856 47.2656 55.3726 47.2656 54.2045 47.2656C53.0364 47.2656 51.8233 47.2656 50.6552 47.4903C50.161 47.5801 49.6668 47.7149 49.1726 47.8946C46.0277 48.9729 43.4219 51.3989 41.3103 53.825C37.4016 58.4076 34.1219 62.3163 30.1683 66.8989C24.2828 72.7844 17.0495 79.2988 18.3973 88.4191C19.7002 93.0017 22.9799 97.5394 28.8654 98.8423C32.1451 99.5162 42.6132 96.8655 53.7552 96.8655H54.5639C65.7059 96.8655 76.174 99.4712 79.4537 98.8423C85.3391 97.5394 88.6189 92.9568 89.9217 88.4191C91.3145 79.2539 84.0812 72.7394 78.1957 66.854Z" fill="#A09185"/>
</g>
<defs>
<clipPath id="clip0_2110_1924">
<rect width="107.826" height="107.826" fill="white" transform="translate(0.292969 0.0859375)"/>
</clipPath>
</defs>
</svg>
