<svg width="219" height="72" viewBox="0 0 219 72" fill="none" xmlns="http://www.w3.org/2000/svg">
<g id="&#237;&#142;&#171;&#237;&#138;&#184;&#235;&#166;&#172;">
<path d="M63.8071 46.4999C58.9662 46.4999 55.765 42.9864 56.3896 35.8812C57.0143 27.9171 57.0143 18.7819 56.4677 11.5206C55.765 3.7908 58.9662 0.121094 63.8071 0.121094C68.1015 0.121094 71.3027 3.24425 71.6931 9.64671C72.0835 17.7669 72.1616 29.0103 71.6931 37.1304C71.2246 43.4548 68.1015 46.4999 63.8071 46.4999ZM33.3564 28.1514C33.2783 28.5418 33.1222 29.0103 32.966 29.4787C35.8549 30.3376 37.0261 32.758 37.0261 36.4277C37.0261 40.7221 35.5426 43.2987 31.4825 43.6891C23.5185 44.626 13.6805 44.4699 5.87265 43.3767C1.73447 42.8302 0.250977 40.4098 0.250977 36.1154C0.250977 32.2896 1.42216 29.713 4.77955 29.0103C3.53029 24.2474 3.53029 20.6558 4.54531 15.6588C1.42216 14.7999 0.250977 12.3014 0.250977 8.70976C0.250977 4.49351 1.73447 1.91691 5.87265 1.44843C13.6805 0.511487 23.5185 0.199172 31.4825 1.13612C35.5426 1.52651 37.0261 4.10311 37.0261 8.31937C37.0261 11.8329 35.933 14.1753 33.2783 15.1122C33.3564 15.5026 33.4345 15.8149 33.5125 16.2053H39.2904C39.2123 14.878 39.1342 13.4726 39.0561 12.1452C38.4315 4.49351 41.4766 0.979959 46.3955 0.979959C50.6899 0.979959 53.735 4.02503 54.2034 10.1933C54.6719 18.0011 54.6719 27.5268 54.2034 35.3346C53.735 41.659 50.6899 44.626 46.3955 44.626C41.4766 44.626 38.2754 41.0344 38.9 34.1635C39.0561 32.1334 39.2123 30.1034 39.2904 28.1514H33.3564ZM18.131 28.3856C18.8337 28.3856 19.4584 28.3856 20.1611 28.3856C20.4734 23.7009 20.4734 20.3435 20.2392 16.2834C19.5364 16.2834 18.7557 16.3615 18.0529 16.3615C17.8187 20.4216 17.8187 23.779 18.131 28.3856ZM35.0741 56.1036C34.8399 56.6501 35.2303 57.1186 35.7768 57.2748C39.6027 58.0556 42.7258 59.6952 42.7258 64.3019C42.7258 69.2989 35.8549 71.0947 24.065 71.0947C12.5093 71.0947 5.71649 67.8935 5.71649 61.491C5.71649 50.8723 18.7557 46.0314 39.9931 46.0314C60.8401 46.0314 71.4589 51.6531 71.4589 61.9595C71.4589 67.7373 68.1015 71.0947 58.8882 71.0947C49.1283 71.0947 45.3024 68.9085 44.9121 63.9896C44.5217 58.3679 41.0081 56.5721 36.2453 55.4009C35.6988 55.3228 35.2303 55.479 35.0741 56.1036Z" fill="#A09185"/>
<path d="M90.4473 46.4999C83.264 45.4849 79.1258 39.3947 79.1258 29.4006V18.2354C79.1258 9.49055 81.8586 5.04006 87.4022 4.64966C104.736 3.4004 121.366 3.4004 138.622 4.10311C141.745 4.18119 142.838 5.977 142.838 8.63168C142.838 11.0521 141.745 13.7068 138.622 13.7068H104.58C103.096 13.7068 103.096 16.5176 104.58 16.5176H137.919C141.042 16.5176 142.135 18.2354 142.135 20.812C142.135 23.3886 141.042 24.7159 137.919 24.794L104.58 24.9502C103.018 24.9502 103.018 28.1514 104.58 28.1514L137.997 27.9952C141.589 27.9952 143.775 31.5868 143.775 37.2085C143.775 42.674 141.589 45.7191 137.997 46.2657C120.976 48.6861 105.36 48.7642 90.4473 46.4999ZM85.8406 69.9235C79.9066 69.2989 76.3931 65.8634 76.3931 59.1487C76.3931 53.6832 79.9066 49.2327 85.8406 49.8573C103.252 51.575 119.414 51.575 136.904 49.8573C142.916 49.2327 146.352 53.6832 146.352 59.1487C146.352 65.8634 142.916 69.2989 136.826 69.9235C119.414 71.6413 103.252 71.6413 85.8406 69.9235Z" fill="#A09185"/>
<path d="M207.425 71.8755C201.1 71.8755 196.806 68.2839 197.587 61.2568C199.539 44.4699 199.539 27.6048 197.665 11.5206C196.806 3.7908 201.1 0.121094 207.425 0.121094C212.89 0.121094 216.794 3.24425 217.419 9.64671C219.136 26.5117 219.136 45.563 217.419 62.5061C216.794 68.7524 212.89 71.8755 207.425 71.8755ZM151.676 56.5721C150.661 50.0915 150.427 43.2987 151.676 37.677C152.926 31.5868 154.878 27.2925 161.748 27.2925C166.667 27.2925 172.133 27.0583 177.13 26.2775C178.301 26.1213 178.301 23.7009 177.13 23.8571C172.445 24.5598 167.37 24.8721 162.763 24.8721C154.253 24.8721 151.676 21.5928 151.676 15.2684C151.676 9.02208 155.58 5.04006 163.232 3.47848C169.556 2.3073 174.553 2.3073 180.019 3.08809C186.187 3.94695 191.418 6.13316 192.824 13.3164C193.917 19.5627 193.995 26.6679 192.824 31.8992C192.043 35.2566 189.623 36.3497 186.265 36.3497C177.364 36.4277 169.244 37.7551 164.091 40.1755C162.842 40.8002 163.7 42.9864 164.95 42.5179C169.4 40.5659 176.896 38.692 182.439 38.692C190.95 38.692 195.01 43.2206 195.713 51.4189C196.65 65.2388 186.109 68.8304 174.866 68.8304C161.28 68.8304 152.769 64.38 151.676 56.5721Z" fill="#A09185"/>
</g>
</svg>
