<svg width="109" height="108" viewBox="0 0 109 108" fill="none" xmlns="http://www.w3.org/2000/svg">
<g id="pets_black_24dp" clip-path="url(#clip0_1994_875)">
<path id="Vector" d="M20.5087 53.9949C26.7119 53.9949 31.7405 48.9663 31.7405 42.7631C31.7405 36.5599 26.7119 31.5312 20.5087 31.5312C14.3055 31.5312 9.27686 36.5599 9.27686 42.7631C9.27686 48.9663 14.3055 53.9949 20.5087 53.9949Z" fill="#A09185"/>
<path id="Vector_2" d="M40.727 36.0262C46.9301 36.0262 51.9588 30.9975 51.9588 24.7943C51.9588 18.5912 46.9301 13.5625 40.727 13.5625C34.5238 13.5625 29.4951 18.5912 29.4951 24.7943C29.4951 30.9975 34.5238 36.0262 40.727 36.0262Z" fill="#A09185"/>
<path id="Vector_3" d="M67.6825 36.0262C73.8857 36.0262 78.9144 30.9975 78.9144 24.7943C78.9144 18.5912 73.8857 13.5625 67.6825 13.5625C61.4794 13.5625 56.4507 18.5912 56.4507 24.7943C56.4507 30.9975 61.4794 36.0262 67.6825 36.0262Z" fill="#A09185"/>
<path id="Vector_4" d="M87.9003 53.9949C94.1035 53.9949 99.1321 48.9663 99.1321 42.7631C99.1321 36.5599 94.1035 31.5312 87.9003 31.5312C81.6971 31.5312 76.6685 36.5599 76.6685 42.7631C76.6685 48.9663 81.6971 53.9949 87.9003 53.9949Z" fill="#A09185"/>
<path id="Vector_5" d="M78.1957 66.8501C74.287 62.2675 71.0073 58.3588 67.0537 53.7762C64.987 51.3501 62.3363 48.924 59.1914 47.8458C58.6972 47.6661 58.203 47.5313 57.7088 47.4414C56.5856 47.2617 55.3726 47.2617 54.2045 47.2617C53.0364 47.2617 51.8233 47.2617 50.6552 47.4864C50.161 47.5762 49.6668 47.711 49.1726 47.8907C46.0277 48.969 43.4219 51.395 41.3103 53.8211C37.4016 58.4037 34.1219 62.3124 30.1683 66.895C24.2828 72.7805 17.0495 79.2949 18.3973 88.4152C19.7002 92.9978 22.9799 97.5355 28.8654 98.8384C32.1451 99.5123 42.6132 96.8616 53.7552 96.8616H54.5639C65.7059 96.8616 76.174 99.4673 79.4537 98.8384C85.3391 97.5355 88.6189 92.9529 89.9217 88.4152C91.3145 79.25 84.0812 72.7355 78.1957 66.8501Z" fill="#A09185"/>
</g>
<defs>
<clipPath id="clip0_1994_875">
<rect width="107.826" height="107.826" fill="white" transform="translate(0.292969 0.0859375)"/>
</clipPath>
</defs>
</svg>
