<svg width="24" height="25" viewBox="0 0 24 25" fill="none" xmlns="http://www.w3.org/2000/svg">
<g id="Group 19">
<g id="surface1">
<path id="Vector" d="M20.9647 16.2476C20.3463 17.8796 19.4108 19.2981 18.1839 20.4641C16.7871 21.7914 14.9584 22.8461 12.7482 23.5983C12.6757 23.6229 12.6 23.643 12.5239 23.6579C12.4235 23.6772 12.3217 23.6877 12.2203 23.6891H12.2005C12.0924 23.6891 11.9839 23.6785 11.8762 23.6579C11.8001 23.643 11.7253 23.6229 11.6533 23.5988C9.4408 22.8479 7.60941 21.7936 6.21176 20.4663C4.98437 19.3003 4.04886 17.8826 3.43088 16.2506C2.30754 13.2839 2.3715 10.016 2.42285 7.38934L2.42375 7.34901C2.43411 7.13203 2.44087 6.90452 2.44447 6.65291C2.46339 5.41763 3.47232 4.39583 4.7416 4.32701C7.3878 4.18323 9.43495 3.34334 11.1844 1.68418L11.1997 1.67059C11.4902 1.41108 11.8559 1.28396 12.2203 1.28922C12.5712 1.29404 12.9212 1.42073 13.2013 1.67059L13.2162 1.68418C14.9656 3.34334 17.0128 4.18323 19.659 4.32701C20.9282 4.39583 21.9372 5.41763 21.9561 6.65291C21.9597 6.90627 21.9665 7.13378 21.9768 7.34901V7.36611C22.0286 9.99754 22.0921 13.272 20.9647 16.2476Z" fill="#FF6363"/>
<path id="Vector_2" d="M17.9369 12.4887C17.9369 15.5602 15.3745 18.0606 12.2211 18.0715H12.2009C9.03804 18.0715 6.46436 15.5668 6.46436 12.4887C6.46436 9.41056 9.03804 6.90625 12.2009 6.90625H12.2211C15.3745 6.91721 17.9369 9.41714 17.9369 12.4887Z" fill="white"/>
<path id="Vector_3" d="M14.8059 11.6849L12.2223 14.1993L11.6642 14.7424C11.5322 14.8709 11.3593 14.9349 11.1868 14.9349C11.0142 14.9349 10.8408 14.8709 10.7089 14.7424L9.50851 13.5738C9.24456 13.3169 9.24456 12.9013 9.50851 12.6445C9.772 12.3876 10.1994 12.3876 10.4634 12.6445L11.1863 13.348L13.8505 10.7552C14.1145 10.4983 14.5419 10.4983 14.8054 10.7552C15.0694 11.012 15.0694 11.428 14.8054 11.6845L14.8059 11.6849Z" fill="#908181"/>
</g>
</g>
</svg>
